<?xml version="1.0" encoding="UTF-8"?>
<svg id="Layer_1" data-name="Layer 1" xmlns="http://www.w3.org/2000/svg" viewBox="0 0 149.65 149.65">
  <defs>
    <style>
      .cls-1 {
        stroke-dasharray: 0 0 1.96 1.96;
      }

      .cls-1, .cls-2, .cls-3, .cls-4, .cls-5, .cls-6, .cls-7, .cls-8, .cls-9, .cls-10, .cls-11, .cls-12 {
        stroke-miterlimit: 10;
      }

      .cls-1, .cls-2, .cls-3, .cls-4, .cls-5, .cls-6, .cls-7, .cls-8, .cls-10, .cls-11, .cls-12 {
        fill: none;
      }

      .cls-1, .cls-3, .cls-4, .cls-5, .cls-6, .cls-8, .cls-9, .cls-10, .cls-11 {
        stroke-width: .25px;
      }

      .cls-1, .cls-3, .cls-5, .cls-6, .cls-8, .cls-10, .cls-11 {
        stroke: red;
      }

      .cls-2, .cls-4, .cls-7, .cls-9, .cls-12 {
        stroke: #000;
      }

      .cls-13 {
        stroke-width: 0px;
      }

      .cls-14 {
        font-family: ArialMT, Arial;
        font-size: 12px;
      }

      .cls-5 {
        stroke-dasharray: 0 0 1.66 1.66;
      }

      .cls-6 {
        stroke-dasharray: 0 0 1.71 1.71;
      }

      .cls-7 {
        stroke-dasharray: 0 0 .99 .99;
      }

      .cls-8 {
        stroke-dasharray: 0 0 2.02 2.02;
      }

      .cls-9 {
        fill: blue;
      }

      .cls-10 {
        stroke-dasharray: 0 0 2.06 2.06;
      }

      .cls-11 {
        stroke-dasharray: 0 0 1.94 1.94;
      }

      .cls-12 {
        stroke-width: .5px;
      }
    </style>
  </defs>
  <rect class="cls-2" x=".5" y=".5" width="148.65" height="148.65"/>
  <line class="cls-4" x1=".5" y1="74.83" x2="149.15" y2="74.83"/>
  <line class="cls-4" x1="74.83" y1="1.12" x2="74.83" y2="149.15"/>
  <g>
    <line class="cls-3" x1="74.83" y1="74.28" x2="75.54" y2="73.58"/>
    <line class="cls-11" x1="76.94" y1="72.23" x2="92.96" y2="56.65"/>
    <polyline class="cls-3" points="93.65 55.98 94.37 55.28 93.65 55.98"/>
    <line class="cls-5" x1="92.46" y1="57.14" x2="90.67" y2="58.87"/>
    <line class="cls-3" x1="90.08" y1="59.45" x2="89.36" y2="60.15"/>
  </g>
  <circle class="cls-9" cx="99.43" cy="49.75" r="5.06"/>
  <circle class="cls-9" cx="40.47" cy="41.45" r="5.06"/>
  <g>
    <line class="cls-12" x1="127.52" y1="21.91" x2="106.97" y2="42.25"/>
    <path class="cls-13" d="m103.75,45.43c.96-2.06,1.89-4.88,2.05-7.04l1.59,3.44,3.43,1.63c-2.17.14-5,1.04-7.07,1.97Z"/>
  </g>
  <g>
    <line class="cls-12" x1="9.82" y1="11.24" x2="33.04" y2="34.46"/>
    <path class="cls-13" d="m36.24,37.66c-2.06-.95-4.89-1.86-7.06-2.01l3.43-1.61,1.61-3.43c.15,2.17,1.06,4.99,2.01,7.05Z"/>
  </g>
  <g>
    <line class="cls-3" x1="74.83" y1="74.28" x2="74.11" y2="73.58"/>
    <line class="cls-10" x1="72.65" y1="72.14" x2="46.99" y2="46.85"/>
    <polyline class="cls-3" points="46.26 46.13 45.54 45.43 46.26 46.13"/>
    <line class="cls-6" x1="47.47" y1="47.33" x2="51.73" y2="51.53"/>
    <line class="cls-3" x1="52.34" y1="52.12" x2="53.05" y2="52.83"/>
  </g>
  <circle class="cls-7" cx="5.56" cy="6.19" r="5.06"/>
  <circle class="cls-7" cx="132.59" cy="17.57" r="5.06"/>
  <text class="cls-14" transform="translate(24.85 18.94)"><tspan x="0" y="0">v</tspan></text>
  <text class="cls-14" transform="translate(30.85 22.94) scale(.58)"><tspan x="0" y="0">⁰</tspan></text>
  <text class="cls-14" transform="translate(106.13 28.2)"><tspan x="0" y="0">v</tspan></text>
  <text class="cls-14" transform="translate(112.13 32.19) scale(.58)"><tspan x="0" y="0">¹</tspan></text>
  <text class="cls-14" transform="translate(47.86 65.17)"><tspan x="0" y="0">x</tspan></text>
  <text class="cls-14" transform="translate(53.86 69.16) scale(.58)"><tspan x="0" y="0">⁰</tspan></text>
  <text class="cls-14" transform="translate(88.52 69.48)"><tspan x="0" y="0">x</tspan></text>
  <text class="cls-14" transform="translate(94.52 73.48) scale(.58)"><tspan x="0" y="0">¹</tspan></text>
  <g>
    <line class="cls-3" x1="93.66" y1="47.95" x2="92.66" y2="47.83"/>
    <line class="cls-1" x1="90.71" y1="47.59" x2="48.83" y2="42.49"/>
    <polyline class="cls-3" points="47.86 42.37 46.86 42.25 47.86 42.37"/>
    <line class="cls-8" x1="49.86" y1="42.62" x2="56.87" y2="43.47"/>
    <line class="cls-3" x1="57.87" y1="43.59" x2="58.86" y2="43.71"/>
  </g>
  <text class="cls-14" transform="translate(62.69 42.58)"><tspan x="0" y="0">d</tspan></text>
</svg>